<svg xmlns="http://www.w3.org/2000/svg" viewBox="0 0 385.1 43.4">
  <path d="M13.6 32.4l1.6-1v.6l-5.5 3.3-2.5-1.5L5.4 35v-.7l1.5-1V6.9l4.5-3.3V31l2.2 1.4zM32.6 16.1v17.5l1.2-.7v.6L31 35.2l-2.9-1.7v-2.3l-6.7 4c-.7-.3-1.3-.8-1.9-1.4-.9-.9-1.9-2.4-1.9-4.3 0-2.5 1.1-4.9 2.2-6.7.6-1 1.4-2 2.3-2.9l6 3.5v-4.9l-6.4-3.8-1.8 1.1v-.6l5.8-3.4 6.7 4 1.5-1v.7l-1.3.6zM28.1 24l-5.7-3.4c-.2.8-.5 1.8-.6 2.7-.2 1.5-.3 3.4.3 4.8.5 1.3 1.5 2.2 2.2 2.9.5.4.9.8 1.4 1l2.4-1.4V24zM66.2 32.6l-4.6 2.7-3.1-1.9v-2L52 35.3l-3.5-2.1v-1.4l-5.9 3.5-3.8-2.3-1.8 1.2v-.7l1.5-1V17.9v-.6c0-.3 0-.6-.1-.8 0-.3-.3-.7-.8-1.4-.5-.6-.8-1.2-1-1.7-.2-.5-.3-1.1-.3-1.7 0-1.2.3-2.2 1-3.1.7-.9 2.1-1.9 4-3-1.5 1.1-4.2 4.1-.6 6.6 1.1.8 1.7 2.1 2.1 3.1.2.6.3 1.3.4 1.9v17.1l5.4-3.2V16.5l-.8-1 3.1-3.9 3.1 3.9-.8 1V34l5.4-3.2V16.5l-.8-1 3.1-3.9 3.1 3.9-.8 1V33.7l3.1-1.9v.8zM93.9 30.5c0 5 1.1 9.1-5.2 9.1-4.2 0-8.7-1.4-8.9 2-.1-.8.1-1.5.8-2.2 1.2-1 3.8-2.2 9.8-2.2 4.1 0 3-6.1-1-7.2l-4.2 5.2-6-3.6-1.7 1.2v-.7l1.5-1V16.4l7.9-4.8 6.6 4 1.8-1.2v.6l-1.5 1v14.5zm-6.3.9l1.7-2.1v-11l-5.8-3.5v14l4.1 2.6zM108.3 14.6l-1 .6v15.1l3.2 1.9 3-1.8v.6l-7 4.2L103 33l-1.7 1.2v-.7l1.5-1v-16l-3.4-2-1.3.7-.3-.2 5.5-3.3 4 2.3v.6l4.9-2.9 4.5 2.6-.6.3-3.9 2.3-3.9-2.3zM136.8 13.9v.6l-1.5 1v14.3l-4.6 2.7V17.7l-5.6-3.3v14.9l5.6 3.3-4.5 2.7-5.5-3.2-1.7 1.1v-.7l1.5-1V17.1l9.2-5.4 5.3 3.4 1.8-1.2zM139.3 33.5l1.5-1v-16l-.9-1 3.1-3.8 3.1 3.8-.8 1v17.8l5.4-3.2V16.6l-.9-1 3.1-3.8 3.1 3.8-.8 1v17.5l2.8-1.7v.6l-3.8 2.3-3.5-2.1v-1.4l-5.9 3.5L141 33l-1.7 1.2v-.7zM180.8 13.9l-1.5 1v15.7l-6.8 4.7c-.5-.3-1.6-1.6-3.6-2.7v5.7l-4.6 3.3V31.2c-1.1-.1-2.4-.1-3.8.1.3-.1.7-.3 1.1-.5.7-.3 1.6-.6 2.7-.9v-14l-2.2-1.3-1.6.9V15l5.6-3.3 2.8 1.7V15l5.6-3.3 4.6 2.7 1.7-1.1v.6zm-11.9 15.6c2.4.1 4.7 1.2 5.9 4.2V17.2l-4.2-2.5-1.7 1v13.8z"/>
</svg>
