<svg xmlns="http://www.w3.org/2000/svg" viewBox="0 0 385.1 43.4">
  <path d="M13 14.3l-1 .6v15.5l3.3 2 3.1-1.9v.6l-7.2 4.3-3.6-2.2-1.8 1.2v-.7l1.5-1V16.4l-3.5-2.1-1.3.8-.4-.5 5.7-3.4 4.1 2.4v.7l5.1-3 4.6 2.7-.6.3-4 2.4-4-2.4zM32.4 32.3l1.6-1v.7l-5.7 3.4-2.6-1.6-1.6 1.2v-.7l1.5-1v-17l-.5-1.7 2.8-3.4 2.7 3.4-.3 1.7V31l2.1 1.3zM31.3 3.7l-3.1 4.9h-.9l1.1-4.9h2.9zM42.6 28.9l5.7 3.5 2.2-1.3v.6l-6.2 3.7-6.2-3.6-1.6.9v-.6l1.3-.8V15.5l9.1-4.1 3.5 5.1-4.4 1.9-3.5-5v15.5zM68.8 14.3v14.5c0 2 .1 7.9-9 10.5.7-.5 1.3-.9 1.8-1.5 1-.9 1.9-2.1 2.2-3.3.2-.9.3-2.9.3-6.5V16.6l-3.5-2.1-2.3 1.5v14.8l.7.9-3 3.7-3.1-3.8.6-.9v-25L58.3 3v12.3l6.3-3.8 4 2.3 1.8-1.2v.7l-1.6 1zM88.1 15.8v17.9l1.2-.7v.6l-2.9 1.8-3-1.8v-2.3l-6.8 4.1c-.7-.4-1.4-.9-2-1.5-.9-1-1.9-2.4-1.9-4.4 0-2.6 1.1-5.1 2.3-6.9.7-1 1.5-2 2.3-3l6.1 3.6v-5.1l-6.6-3.9-1.8 1.2v-.7l5.9-3.5 6.9 4.1 1.5-1v.7l-1.2.8zm-4.7 8.1l-5.8-3.5c-.3.8-.5 1.8-.6 2.8-.3 1.5-.4 3.5.3 4.9.5 1.4 1.5 2.3 2.3 3 .5.4 1 .8 1.4 1l2.5-1.5v-6.7zM102.5 14.3l-1 .6v15.5l3.3 2 3.1-1.9v.6l-7.2 4.3-3.6-2.2-1.8 1.2v-.7l1.5-1V16.4l-3.5-2.1-1.3.8-.4-.5 5.7-3.4 4.1 2.4v.7l5.1-3 4.6 2.7-.6.4-4 2.4-4-2.5zM122.7 35.4c-1.3-.8-2.4-1.5-3.5-2.1-1.8-1.1-3.6-2.2-3.8-2.4l-1.8 1.2v-.7l1.5-1v-13l10.5-6.2V3l4.7 3.6v24.2l-7.6 4.6zm-3-7.3l5.9 3.6V11.9l-5.9 3.5v12.7zM151.9 21.8l-1.5 1v8.4l-7 4.2c-4-1.8-9.4-1-10.6-.5l6.3-8.3-4.7-2.8-1.6 1.1v-.7l1.3-.9V15l6.3-3.8c.9.4 2 .8 3.1 1.1 1.9.5 4.3.9 6.6.4l-4.9 6.6 4.9 2.9 1.8-1.2v.8zm-6.2 3.3l-3.4-2-8.1 10.7c2.4-1.4 7.5-3.5 11.5.1v-8.8zm-6.9-4.1l3.1 1.8 6.9-9.2c-4 2.3-7.1 1-10-1.4V21zM179.7 15.8v17.9l1.2-.7v.6l-2.9 1.8-3-1.8v-2.3l-6.8 4.1c-.7-.4-1.4-.9-2-1.5-.9-1-1.9-2.4-1.9-4.4 0-2.6 1.1-5.1 2.3-6.9.7-1 1.5-2 2.3-3l6.1 3.6v-5.1l-6.6-3.9-1.9 1.1v-.7l5.9-3.5 6.9 4.1 1.5-1v.8l-1.1.8zm-4.7 8.1l-5.8-3.5c-.3.8-.5 1.8-.6 2.8-.3 1.5-.4 3.5.3 4.9.5 1.4 1.5 2.3 2.3 3 .5.4 1 .8 1.4 1l2.5-1.5v-6.7zM201.4 13.1l-1.5 1v16.3l.8 1.1-3.2 4-3.2-4 .8-1.1V12.2l-5.5 3.3v14.9l.8 1.1-3.2 4-3.2-4 .9-1.1V12.5l-1.7 1v-.6l2.8-1.6 3.6 2.2v1.4l6-3.6 3.9 2.3 1.8-1.1v.6zM213 35.4c-1.3-.8-2.5-1.5-3.5-2.1-1.8-1.1-3.6-2.2-3.9-2.4l-1.8 1.2v-.7l1.5-1v-13l10.5-6.2V3l4.7 3.6v24.2l-7.5 4.6zm-3-7.3l5.8 3.6V11.9l-5.8 3.5v12.7zM243.8 14.3l-1 .6v15.5l3.3 2 3.1-1.9v.6l-7.2 4.3-3.6-2.2-1.8 1.2v-.7l1.5-1V16.4l-3.4-2.1-1.3.8-.3-.5 5.7-3.4 4.1 2.4v.7l5-3 4.6 2.7-.6.4-4 2.4-4.1-2.5zM263.3 32.3l1.6-1v.7l-5.7 3.4-2.6-1.6-1.8 1.2v-.7l1.5-1v-17l-.5-1.7 2.8-3.4 2.7 3.4-.3 1.7V31l2.3 1.3zm-1.2-28.6L259 8.6h-.9l1.1-4.9h2.9zM273.4 28.9l5.7 3.5 2.2-1.3v.6l-6.2 3.7-6.2-3.6-1.6.9v-.6l1.3-.8V15.5l9.1-4.1 3.5 5.1-4.4 1.9-3.5-5v15.5zM299.7 14.3v14.5c0 2 .1 7.9-9 10.5.7-.5 1.3-.9 1.8-1.5 1-.9 1.9-2.1 2.2-3.3.2-.9.3-2.9.3-6.5V16.6l-3.5-2.1-2.4 1.4v14.8l.7.9-3 3.7-3.1-3.8.7-.9v-25l4.7-2.8v12.3l6.3-3.8 4 2.3 1.8-1.2v.7l-1.5 1.2zM318.9 15.8v17.9l1.2-.7v.6l-2.9 1.8-3-1.8v-2.3l-6.8 4.1c-.7-.4-1.4-.9-2-1.5-.9-1-1.9-2.4-1.9-4.4 0-2.6 1.1-5.1 2.3-6.9.7-1 1.5-2 2.3-3l6.1 3.6v-5.1l-6.6-3.9-1.9 1.1v-.7l5.9-3.5 6.9 4.1 1.5-1v.8l-1.1.8zm-4.6 8.1l-5.8-3.5c-.3.8-.5 1.8-.6 2.8-.3 1.5-.4 3.5.3 4.9.5 1.4 1.5 2.3 2.3 3 .5.4 1 .8 1.4 1l2.5-1.5v-6.7zM333.4 14.3l-1 .6v15.5l3.3 2 3.1-1.9v.6l-7.2 4.3-3.6-2.2-1.8 1.2v-.7l1.5-1V16.4l-3.4-2.1-1.3.8-.3-.5 5.7-3.4 4.1 2.4v.7l5-3L342 14l-.6.4-4 2.4-4-2.5zM353.6 35.4c-1.4-.8-2.5-1.5-3.5-2.1-1.8-1.1-3.6-2.2-3.9-2.4l-1.8 1.2v-.7l1.5-1v-13l10.5-6.2V3l4.7 3.6v24.2l-7.5 4.6zm-3-7.3l5.9 3.6V11.9l-5.9 3.5v12.7zM382.7 21.8l-1.5 1v8.4l-7 4.2c-4-1.8-9.4-1-10.6-.5l6.3-8.3-4.7-2.8-1.6 1.1v-.7l1.3-.9V15l6.3-3.8c1 .4 2 .8 3.1 1.1 1.9.5 4.3.9 6.6.4l-4.9 6.6 4.9 2.9 1.8-1.2v.8zm-6.1 3.3l-3.4-2-8.1 10.7c2.4-1.4 7.5-3.5 11.5.1v-8.8zm-7-4.1l3.1 1.8 6.9-9.2c-4 2.3-7.1 1-10-1.4V21z"/>
</svg>
